<?xml version = "1.0" encoding = "utf-8" standalone = "no"?><!DOCTYPE svg PUBLIC "-//W3C//DTD SVG 1.1//EN" "http://www.w3.org/Graphics/SVG/1.1/DTD/svg11.dtd">
<svg preserveAspectRatio = "xMinYMin meet" width = "100%" height = "100%" fill = "none" viewBox = "0 0 373.333 280.000"  version = "1.1" xmlns = "http://www.w3.org/2000/svg" xmlns:xlink = "http://www.w3.org/1999/xlink">
  <desc>Matlab Figure Converted by FIG2SVG</desc>
  <g id = "topgroup">
  <rect x = "0" y = "0" width = "373.333" height = "280.000" fill = "#ffffff" stroke = "none" />
  <g id  = "ID000000">
    <g>
<g id = "ID000002" >
</g>
<g id = "ID000003" clip-path = "url(#ID000001)" >
      <polyline fill = "#0000ff" fill-opacity = "1.000" stroke = "none" points = "98.089,21.576 134.978,21.576 134.978,21.000 98.089,21.000 "/>
      <polyline fill = "#0000ff" fill-opacity = "1.000" stroke = "none" points = "98.089,22.153 134.978,22.153 134.978,21.576 98.089,21.576 "/>
      <polyline fill = "#0000ff" fill-opacity = "1.000" stroke = "none" points = "98.089,22.729 134.978,22.729 134.978,22.153 98.089,22.153 "/>
      <polyline fill = "#ff0000" fill-opacity = "1.000" stroke = "none" points = "98.089,23.305 134.978,23.305 134.978,22.729 98.089,22.729 "/>
      <polyline fill = "#ff0000" fill-opacity = "1.000" stroke = "none" points = "98.089,23.881 134.978,23.881 134.978,23.305 98.089,23.305 "/>
      <polyline fill = "#ff0000" fill-opacity = "1.000" stroke = "none" points = "98.089,24.458 134.978,24.458 134.978,23.881 98.089,23.881 "/>
      <polyline fill = "#ff0000" fill-opacity = "1.000" stroke = "none" points = "98.089,25.034 134.978,25.034 134.978,24.458 98.089,24.458 "/>
      <polyline fill = "#ff0000" fill-opacity = "1.000" stroke = "none" points = "98.089,25.610 134.978,25.610 134.978,25.034 98.089,25.034 "/>
      <polyline fill = "#ff0000" fill-opacity = "1.000" stroke = "none" points = "98.089,26.186 134.978,26.186 134.978,25.610 98.089,25.610 "/>
      <polyline fill = "#ff0000" fill-opacity = "1.000" stroke = "none" points = "98.089,26.763 134.978,26.763 134.978,26.186 98.089,26.186 "/>
      <polyline fill = "#ff0000" fill-opacity = "1.000" stroke = "none" points = "98.089,27.339 134.978,27.339 134.978,26.763 98.089,26.763 "/>
      <polyline fill = "#ff0000" fill-opacity = "1.000" stroke = "none" points = "98.089,27.915 134.978,27.915 134.978,27.339 98.089,27.339 "/>
      <polyline fill = "#ff0000" fill-opacity = "1.000" stroke = "none" points = "98.089,28.491 134.978,28.491 134.978,27.915 98.089,27.915 "/>
      <polyline fill = "#ff0000" fill-opacity = "1.000" stroke = "none" points = "98.089,29.068 134.978,29.068 134.978,28.491 98.089,28.491 "/>
      <polyline fill = "#ff0000" fill-opacity = "1.000" stroke = "none" points = "98.089,29.644 134.978,29.644 134.978,29.068 98.089,29.068 "/>
      <polyline fill = "#ff0000" fill-opacity = "1.000" stroke = "none" points = "98.089,30.220 134.978,30.220 134.978,29.644 98.089,29.644 "/>
      <polyline fill = "#ff0000" fill-opacity = "1.000" stroke = "none" points = "98.089,30.796 134.978,30.796 134.978,30.220 98.089,30.220 "/>
      <polyline fill = "#ff0000" fill-opacity = "1.000" stroke = "none" points = "98.089,31.373 134.978,31.373 134.978,30.796 98.089,30.796 "/>
      <polyline fill = "#ff0000" fill-opacity = "1.000" stroke = "none" points = "98.089,31.949 134.978,31.949 134.978,31.373 98.089,31.373 "/>
      <polyline fill = "#ff0000" fill-opacity = "1.000" stroke = "none" points = "98.089,32.525 134.978,32.525 134.978,31.949 98.089,31.949 "/>
      <polyline fill = "#ff0000" fill-opacity = "1.000" stroke = "none" points = "98.089,33.102 134.978,33.102 134.978,32.525 98.089,32.525 "/>
      <polyline fill = "#ff0000" fill-opacity = "1.000" stroke = "none" points = "98.089,33.678 134.978,33.678 134.978,33.102 98.089,33.102 "/>
      <polyline fill = "#0000ff" fill-opacity = "1.000" stroke = "none" points = "98.089,34.254 134.978,34.254 134.978,33.678 98.089,33.678 "/>
      <polyline fill = "#0000ff" fill-opacity = "1.000" stroke = "none" points = "98.089,34.830 134.978,34.830 134.978,34.254 98.089,34.254 "/>
      <polyline fill = "#7f7f7f" fill-opacity = "1.000" stroke = "none" points = "98.089,35.407 134.978,35.407 134.978,34.830 98.089,34.830 "/>
      <polyline fill = "#ff0000" fill-opacity = "1.000" stroke = "none" points = "98.089,35.983 134.978,35.983 134.978,35.407 98.089,35.407 "/>
      <polyline fill = "#ff0000" fill-opacity = "1.000" stroke = "none" points = "98.089,36.559 134.978,36.559 134.978,35.983 98.089,35.983 "/>
      <polyline fill = "#ff0000" fill-opacity = "1.000" stroke = "none" points = "98.089,37.135 134.978,37.135 134.978,36.559 98.089,36.559 "/>
      <polyline fill = "#ff0000" fill-opacity = "1.000" stroke = "none" points = "98.089,37.712 134.978,37.712 134.978,37.135 98.089,37.135 "/>
      <polyline fill = "#ff0000" fill-opacity = "1.000" stroke = "none" points = "98.089,38.288 134.978,38.288 134.978,37.712 98.089,37.712 "/>
      <polyline fill = "#ff0000" fill-opacity = "1.000" stroke = "none" points = "98.089,38.864 134.978,38.864 134.978,38.288 98.089,38.288 "/>
      <polyline fill = "#ff0000" fill-opacity = "1.000" stroke = "none" points = "98.089,39.440 134.978,39.440 134.978,38.864 98.089,38.864 "/>
      <polyline fill = "#ff0000" fill-opacity = "1.000" stroke = "none" points = "98.089,40.017 134.978,40.017 134.978,39.440 98.089,39.440 "/>
      <polyline fill = "#ff0000" fill-opacity = "1.000" stroke = "none" points = "98.089,40.593 134.978,40.593 134.978,40.017 98.089,40.017 "/>
      <polyline fill = "#ff0000" fill-opacity = "1.000" stroke = "none" points = "98.089,41.169 134.978,41.169 134.978,40.593 98.089,40.593 "/>
      <polyline fill = "#ff0000" fill-opacity = "1.000" stroke = "none" points = "98.089,41.745 134.978,41.745 134.978,41.169 98.089,41.169 "/>
      <polyline fill = "#ff0000" fill-opacity = "1.000" stroke = "none" points = "98.089,42.322 134.978,42.322 134.978,41.745 98.089,41.745 "/>
      <polyline fill = "#0000ff" fill-opacity = "1.000" stroke = "none" points = "98.089,42.898 134.978,42.898 134.978,42.322 98.089,42.322 "/>
      <polyline fill = "#0000ff" fill-opacity = "1.000" stroke = "none" points = "98.089,43.474 134.978,43.474 134.978,42.898 98.089,42.898 "/>
      <polyline fill = "#7f7f7f" fill-opacity = "1.000" stroke = "none" points = "98.089,44.051 134.978,44.051 134.978,43.474 98.089,43.474 "/>
      <polyline fill = "#7f7f7f" fill-opacity = "1.000" stroke = "none" points = "98.089,44.627 134.978,44.627 134.978,44.051 98.089,44.051 "/>
      <polyline fill = "#7f7f7f" fill-opacity = "1.000" stroke = "none" points = "98.089,45.203 134.978,45.203 134.978,44.627 98.089,44.627 "/>
      <polyline fill = "#7f7f7f" fill-opacity = "1.000" stroke = "none" points = "98.089,45.779 134.978,45.779 134.978,45.203 98.089,45.203 "/>
      <polyline fill = "#7f7f7f" fill-opacity = "1.000" stroke = "none" points = "98.089,46.356 134.978,46.356 134.978,45.779 98.089,45.779 "/>
      <polyline fill = "#7f7f7f" fill-opacity = "1.000" stroke = "none" points = "98.089,46.932 134.978,46.932 134.978,46.356 98.089,46.356 "/>
      <polyline fill = "#7f7f7f" fill-opacity = "1.000" stroke = "none" points = "98.089,47.508 134.978,47.508 134.978,46.932 98.089,46.932 "/>
      <polyline fill = "#7f7f7f" fill-opacity = "1.000" stroke = "none" points = "98.089,48.084 134.978,48.084 134.978,47.508 98.089,47.508 "/>
      <polyline fill = "#7f7f7f" fill-opacity = "1.000" stroke = "none" points = "98.089,48.661 134.978,48.661 134.978,48.084 98.089,48.084 "/>
      <polyline fill = "#7f7f7f" fill-opacity = "1.000" stroke = "none" points = "98.089,49.237 134.978,49.237 134.978,48.661 98.089,48.661 "/>
      <polyline fill = "#7f7f7f" fill-opacity = "1.000" stroke = "none" points = "98.089,49.813 134.978,49.813 134.978,49.237 98.089,49.237 "/>
      <polyline fill = "#7f7f7f" fill-opacity = "1.000" stroke = "none" points = "98.089,50.389 134.978,50.389 134.978,49.813 98.089,49.813 "/>
      <polyline fill = "#7f7f7f" fill-opacity = "1.000" stroke = "none" points = "98.089,50.966 134.978,50.966 134.978,50.389 98.089,50.389 "/>
      <polyline fill = "#ff0000" fill-opacity = "1.000" stroke = "none" points = "98.089,51.542 134.978,51.542 134.978,50.966 98.089,50.966 "/>
      <polyline fill = "#ff0000" fill-opacity = "1.000" stroke = "none" points = "98.089,52.118 134.978,52.118 134.978,51.542 98.089,51.542 "/>
      <polyline fill = "#ff0000" fill-opacity = "1.000" stroke = "none" points = "98.089,52.694 134.978,52.694 134.978,52.118 98.089,52.118 "/>
      <polyline fill = "#ff0000" fill-opacity = "1.000" stroke = "none" points = "98.089,53.271 134.978,53.271 134.978,52.694 98.089,52.694 "/>
      <polyline fill = "#ff0000" fill-opacity = "1.000" stroke = "none" points = "98.089,53.847 134.978,53.847 134.978,53.271 98.089,53.271 "/>
      <polyline fill = "#ff0000" fill-opacity = "1.000" stroke = "none" points = "98.089,54.423 134.978,54.423 134.978,53.847 98.089,53.847 "/>
      <polyline fill = "#ff0000" fill-opacity = "1.000" stroke = "none" points = "98.089,54.999 134.978,54.999 134.978,54.423 98.089,54.423 "/>
      <polyline fill = "#ff0000" fill-opacity = "1.000" stroke = "none" points = "98.089,55.576 134.978,55.576 134.978,54.999 98.089,54.999 "/>
      <polyline fill = "#ff0000" fill-opacity = "1.000" stroke = "none" points = "98.089,56.152 134.978,56.152 134.978,55.576 98.089,55.576 "/>
      <polyline fill = "#ff0000" fill-opacity = "1.000" stroke = "none" points = "98.089,56.728 134.978,56.728 134.978,56.152 98.089,56.152 "/>
      <polyline fill = "#ff0000" fill-opacity = "1.000" stroke = "none" points = "98.089,57.305 134.978,57.305 134.978,56.728 98.089,56.728 "/>
      <polyline fill = "#ff0000" fill-opacity = "1.000" stroke = "none" points = "98.089,57.881 134.978,57.881 134.978,57.305 98.089,57.305 "/>
      <polyline fill = "#ff0000" fill-opacity = "1.000" stroke = "none" points = "98.089,58.457 134.978,58.457 134.978,57.881 98.089,57.881 "/>
      <polyline fill = "#ff0000" fill-opacity = "1.000" stroke = "none" points = "98.089,59.033 134.978,59.033 134.978,58.457 98.089,58.457 "/>
      <polyline fill = "#ff0000" fill-opacity = "1.000" stroke = "none" points = "98.089,59.610 134.978,59.610 134.978,59.033 98.089,59.033 "/>
      <polyline fill = "#ff0000" fill-opacity = "1.000" stroke = "none" points = "98.089,60.186 134.978,60.186 134.978,59.610 98.089,59.610 "/>
      <polyline fill = "#ff0000" fill-opacity = "1.000" stroke = "none" points = "98.089,60.762 134.978,60.762 134.978,60.186 98.089,60.186 "/>
      <polyline fill = "#ff0000" fill-opacity = "1.000" stroke = "none" points = "98.089,61.338 134.978,61.338 134.978,60.762 98.089,60.762 "/>
      <polyline fill = "#ff0000" fill-opacity = "1.000" stroke = "none" points = "98.089,61.915 134.978,61.915 134.978,61.338 98.089,61.338 "/>
      <polyline fill = "#ff0000" fill-opacity = "1.000" stroke = "none" points = "98.089,62.491 134.978,62.491 134.978,61.915 98.089,61.915 "/>
      <polyline fill = "#ff0000" fill-opacity = "1.000" stroke = "none" points = "98.089,63.067 134.978,63.067 134.978,62.491 98.089,62.491 "/>
      <polyline fill = "#ff0000" fill-opacity = "1.000" stroke = "none" points = "98.089,63.643 134.978,63.643 134.978,63.067 98.089,63.067 "/>
      <polyline fill = "#ff0000" fill-opacity = "1.000" stroke = "none" points = "98.089,64.220 134.978,64.220 134.978,63.643 98.089,63.643 "/>
      <polyline fill = "#ff0000" fill-opacity = "1.000" stroke = "none" points = "98.089,64.796 134.978,64.796 134.978,64.220 98.089,64.220 "/>
      <polyline fill = "#ff0000" fill-opacity = "1.000" stroke = "none" points = "98.089,65.372 134.978,65.372 134.978,64.796 98.089,64.796 "/>
      <polyline fill = "#ff0000" fill-opacity = "1.000" stroke = "none" points = "98.089,65.948 134.978,65.948 134.978,65.372 98.089,65.372 "/>
      <polyline fill = "#ff0000" fill-opacity = "1.000" stroke = "none" points = "98.089,66.525 134.978,66.525 134.978,65.948 98.089,65.948 "/>
      <polyline fill = "#ff0000" fill-opacity = "1.000" stroke = "none" points = "98.089,67.101 134.978,67.101 134.978,66.525 98.089,66.525 "/>
      <polyline fill = "#ff0000" fill-opacity = "1.000" stroke = "none" points = "98.089,67.677 134.978,67.677 134.978,67.101 98.089,67.101 "/>
      <polyline fill = "#ff0000" fill-opacity = "1.000" stroke = "none" points = "98.089,68.254 134.978,68.254 134.978,67.677 98.089,67.677 "/>
      <polyline fill = "#ff0000" fill-opacity = "1.000" stroke = "none" points = "98.089,68.830 134.978,68.830 134.978,68.254 98.089,68.254 "/>
      <polyline fill = "#ff0000" fill-opacity = "1.000" stroke = "none" points = "98.089,69.406 134.978,69.406 134.978,68.830 98.089,68.830 "/>
      <polyline fill = "#ff0000" fill-opacity = "1.000" stroke = "none" points = "98.089,69.982 134.978,69.982 134.978,69.406 98.089,69.406 "/>
      <polyline fill = "#ff0000" fill-opacity = "1.000" stroke = "none" points = "98.089,70.559 134.978,70.559 134.978,69.982 98.089,69.982 "/>
      <polyline fill = "#ff0000" fill-opacity = "1.000" stroke = "none" points = "98.089,71.135 134.978,71.135 134.978,70.559 98.089,70.559 "/>
      <polyline fill = "#ff0000" fill-opacity = "1.000" stroke = "none" points = "98.089,71.711 134.978,71.711 134.978,71.135 98.089,71.135 "/>
      <polyline fill = "#ff0000" fill-opacity = "1.000" stroke = "none" points = "98.089,72.287 134.978,72.287 134.978,71.711 98.089,71.711 "/>
      <polyline fill = "#ff0000" fill-opacity = "1.000" stroke = "none" points = "98.089,72.864 134.978,72.864 134.978,72.287 98.089,72.287 "/>
      <polyline fill = "#ff0000" fill-opacity = "1.000" stroke = "none" points = "98.089,73.440 134.978,73.440 134.978,72.864 98.089,72.864 "/>
      <polyline fill = "#ff0000" fill-opacity = "1.000" stroke = "none" points = "98.089,74.016 134.978,74.016 134.978,73.440 98.089,73.440 "/>
      <polyline fill = "#ff0000" fill-opacity = "1.000" stroke = "none" points = "98.089,74.592 134.978,74.592 134.978,74.016 98.089,74.016 "/>
      <polyline fill = "#0000ff" fill-opacity = "1.000" stroke = "none" points = "98.089,75.169 134.978,75.169 134.978,74.592 98.089,74.592 "/>
      <polyline fill = "#0000ff" fill-opacity = "1.000" stroke = "none" points = "98.089,75.745 134.978,75.745 134.978,75.169 98.089,75.169 "/>
      <polyline fill = "#0000ff" fill-opacity = "1.000" stroke = "none" points = "98.089,76.321 134.978,76.321 134.978,75.745 98.089,75.745 "/>
      <polyline fill = "#0000ff" fill-opacity = "1.000" stroke = "none" points = "98.089,76.897 134.978,76.897 134.978,76.321 98.089,76.321 "/>
      <polyline fill = "#0000ff" fill-opacity = "1.000" stroke = "none" points = "98.089,77.474 134.978,77.474 134.978,76.897 98.089,76.897 "/>
      <polyline fill = "#0000ff" fill-opacity = "1.000" stroke = "none" points = "98.089,78.050 134.978,78.050 134.978,77.474 98.089,77.474 "/>
      <polyline fill = "#0000ff" fill-opacity = "1.000" stroke = "none" points = "98.089,78.626 134.978,78.626 134.978,78.050 98.089,78.050 "/>
      <polyline fill = "#0000ff" fill-opacity = "1.000" stroke = "none" points = "98.089,79.203 134.978,79.203 134.978,78.626 98.089,78.626 "/>
      <polyline fill = "#0000ff" fill-opacity = "1.000" stroke = "none" points = "98.089,79.779 134.978,79.779 134.978,79.203 98.089,79.203 "/>
      <polyline fill = "#0000ff" fill-opacity = "1.000" stroke = "none" points = "98.089,80.355 134.978,80.355 134.978,79.779 98.089,79.779 "/>
      <polyline fill = "#0000ff" fill-opacity = "1.000" stroke = "none" points = "98.089,80.931 134.978,80.931 134.978,80.355 98.089,80.355 "/>
      <polyline fill = "#0000ff" fill-opacity = "1.000" stroke = "none" points = "98.089,81.508 134.978,81.508 134.978,80.931 98.089,80.931 "/>
      <polyline fill = "#0000ff" fill-opacity = "1.000" stroke = "none" points = "98.089,82.084 134.978,82.084 134.978,81.508 98.089,81.508 "/>
      <polyline fill = "#0000ff" fill-opacity = "1.000" stroke = "none" points = "98.089,82.660 134.978,82.660 134.978,82.084 98.089,82.084 "/>
      <polyline fill = "#0000ff" fill-opacity = "1.000" stroke = "none" points = "98.089,83.236 134.978,83.236 134.978,82.660 98.089,82.660 "/>
      <polyline fill = "#0000ff" fill-opacity = "1.000" stroke = "none" points = "98.089,83.813 134.978,83.813 134.978,83.236 98.089,83.236 "/>
      <polyline fill = "#0000ff" fill-opacity = "1.000" stroke = "none" points = "98.089,84.389 134.978,84.389 134.978,83.813 98.089,83.813 "/>
      <polyline fill = "#0000ff" fill-opacity = "1.000" stroke = "none" points = "98.089,84.965 134.978,84.965 134.978,84.389 98.089,84.389 "/>
      <polyline fill = "#0000ff" fill-opacity = "1.000" stroke = "none" points = "98.089,85.541 134.978,85.541 134.978,84.965 98.089,84.965 "/>
      <polyline fill = "#0000ff" fill-opacity = "1.000" stroke = "none" points = "98.089,86.118 134.978,86.118 134.978,85.541 98.089,85.541 "/>
      <polyline fill = "#0000ff" fill-opacity = "1.000" stroke = "none" points = "98.089,86.694 134.978,86.694 134.978,86.118 98.089,86.118 "/>
      <polyline fill = "#0000ff" fill-opacity = "1.000" stroke = "none" points = "98.089,87.270 134.978,87.270 134.978,86.694 98.089,86.694 "/>
      <polyline fill = "#0000ff" fill-opacity = "1.000" stroke = "none" points = "98.089,87.846 134.978,87.846 134.978,87.270 98.089,87.270 "/>
      <polyline fill = "#0000ff" fill-opacity = "1.000" stroke = "none" points = "98.089,88.423 134.978,88.423 134.978,87.846 98.089,87.846 "/>
      <polyline fill = "#0000ff" fill-opacity = "1.000" stroke = "none" points = "98.089,88.999 134.978,88.999 134.978,88.423 98.089,88.423 "/>
      <polyline fill = "#0000ff" fill-opacity = "1.000" stroke = "none" points = "98.089,89.575 134.978,89.575 134.978,88.999 98.089,88.999 "/>
      <polyline fill = "#0000ff" fill-opacity = "1.000" stroke = "none" points = "98.089,90.152 134.978,90.152 134.978,89.575 98.089,89.575 "/>
      <polyline fill = "#0000ff" fill-opacity = "1.000" stroke = "none" points = "98.089,90.728 134.978,90.728 134.978,90.152 98.089,90.152 "/>
      <polyline fill = "#0000ff" fill-opacity = "1.000" stroke = "none" points = "98.089,91.304 134.978,91.304 134.978,90.728 98.089,90.728 "/>
      <polyline fill = "#0000ff" fill-opacity = "1.000" stroke = "none" points = "98.089,91.880 134.978,91.880 134.978,91.304 98.089,91.304 "/>
      <polyline fill = "#0000ff" fill-opacity = "1.000" stroke = "none" points = "98.089,92.457 134.978,92.457 134.978,91.880 98.089,91.880 "/>
      <polyline fill = "#0000ff" fill-opacity = "1.000" stroke = "none" points = "98.089,93.033 134.978,93.033 134.978,92.457 98.089,92.457 "/>
      <polyline fill = "#0000ff" fill-opacity = "1.000" stroke = "none" points = "98.089,93.609 134.978,93.609 134.978,93.033 98.089,93.033 "/>
      <polyline fill = "#0000ff" fill-opacity = "1.000" stroke = "none" points = "98.089,94.185 134.978,94.185 134.978,93.609 98.089,93.609 "/>
      <polyline fill = "#0000ff" fill-opacity = "1.000" stroke = "none" points = "98.089,94.762 134.978,94.762 134.978,94.185 98.089,94.185 "/>
      <polyline fill = "#0000ff" fill-opacity = "1.000" stroke = "none" points = "98.089,95.338 134.978,95.338 134.978,94.762 98.089,94.762 "/>
      <polyline fill = "#0000ff" fill-opacity = "1.000" stroke = "none" points = "98.089,95.914 134.978,95.914 134.978,95.338 98.089,95.338 "/>
      <polyline fill = "#0000ff" fill-opacity = "1.000" stroke = "none" points = "98.089,96.490 134.978,96.490 134.978,95.914 98.089,95.914 "/>
      <polyline fill = "#0000ff" fill-opacity = "1.000" stroke = "none" points = "98.089,97.067 134.978,97.067 134.978,96.490 98.089,96.490 "/>
      <polyline fill = "#0000ff" fill-opacity = "1.000" stroke = "none" points = "98.089,97.643 134.978,97.643 134.978,97.067 98.089,97.067 "/>
      <polyline fill = "#0000ff" fill-opacity = "1.000" stroke = "none" points = "98.089,98.219 134.978,98.219 134.978,97.643 98.089,97.643 "/>
      <polyline fill = "#0000ff" fill-opacity = "1.000" stroke = "none" points = "98.089,98.795 134.978,98.795 134.978,98.219 98.089,98.219 "/>
      <polyline fill = "#0000ff" fill-opacity = "1.000" stroke = "none" points = "98.089,99.372 134.978,99.372 134.978,98.795 98.089,98.795 "/>
      <polyline fill = "#0000ff" fill-opacity = "1.000" stroke = "none" points = "98.089,99.948 134.978,99.948 134.978,99.372 98.089,99.372 "/>
      <polyline fill = "#0000ff" fill-opacity = "1.000" stroke = "none" points = "98.089,100.524 134.978,100.524 134.978,99.948 98.089,99.948 "/>
      <polyline fill = "#0000ff" fill-opacity = "1.000" stroke = "none" points = "98.089,101.101 134.978,101.101 134.978,100.524 98.089,100.524 "/>
      <polyline fill = "#0000ff" fill-opacity = "1.000" stroke = "none" points = "98.089,101.677 134.978,101.677 134.978,101.101 98.089,101.101 "/>
      <polyline fill = "#7f7f7f" fill-opacity = "1.000" stroke = "none" points = "98.089,102.253 134.978,102.253 134.978,101.677 98.089,101.677 "/>
      <polyline fill = "#7f7f7f" fill-opacity = "1.000" stroke = "none" points = "98.089,102.829 134.978,102.829 134.978,102.253 98.089,102.253 "/>
      <polyline fill = "#7f7f7f" fill-opacity = "1.000" stroke = "none" points = "98.089,103.406 134.978,103.406 134.978,102.829 98.089,102.829 "/>
      <polyline fill = "#7f7f7f" fill-opacity = "1.000" stroke = "none" points = "98.089,103.982 134.978,103.982 134.978,103.406 98.089,103.406 "/>
      <polyline fill = "#7f7f7f" fill-opacity = "1.000" stroke = "none" points = "98.089,104.558 134.978,104.558 134.978,103.982 98.089,103.982 "/>
      <polyline fill = "#7f7f7f" fill-opacity = "1.000" stroke = "none" points = "98.089,105.134 134.978,105.134 134.978,104.558 98.089,104.558 "/>
      <polyline fill = "#ff0000" fill-opacity = "1.000" stroke = "none" points = "98.089,105.711 134.978,105.711 134.978,105.134 98.089,105.134 "/>
      <polyline fill = "#ff0000" fill-opacity = "1.000" stroke = "none" points = "98.089,106.287 134.978,106.287 134.978,105.711 98.089,105.711 "/>
      <polyline fill = "#ff0000" fill-opacity = "1.000" stroke = "none" points = "98.089,106.863 134.978,106.863 134.978,106.287 98.089,106.287 "/>
      <polyline fill = "#ff0000" fill-opacity = "1.000" stroke = "none" points = "98.089,107.439 134.978,107.439 134.978,106.863 98.089,106.863 "/>
      <polyline fill = "#0000ff" fill-opacity = "1.000" stroke = "none" points = "98.089,108.016 134.978,108.016 134.978,107.439 98.089,107.439 "/>
      <polyline fill = "#0000ff" fill-opacity = "1.000" stroke = "none" points = "98.089,108.592 134.978,108.592 134.978,108.016 98.089,108.016 "/>
      <polyline fill = "#0000ff" fill-opacity = "1.000" stroke = "none" points = "98.089,109.168 134.978,109.168 134.978,108.592 98.089,108.592 "/>
      <polyline fill = "#0000ff" fill-opacity = "1.000" stroke = "none" points = "98.089,109.744 134.978,109.744 134.978,109.168 98.089,109.168 "/>
      <polyline fill = "#0000ff" fill-opacity = "1.000" stroke = "none" points = "98.089,110.321 134.978,110.321 134.978,109.744 98.089,109.744 "/>
      <polyline fill = "#0000ff" fill-opacity = "1.000" stroke = "none" points = "98.089,110.897 134.978,110.897 134.978,110.321 98.089,110.321 "/>
      <polyline fill = "#0000ff" fill-opacity = "1.000" stroke = "none" points = "98.089,111.473 134.978,111.473 134.978,110.897 98.089,110.897 "/>
      <polyline fill = "#0000ff" fill-opacity = "1.000" stroke = "none" points = "98.089,112.049 134.978,112.049 134.978,111.473 98.089,111.473 "/>
      <polyline fill = "#0000ff" fill-opacity = "1.000" stroke = "none" points = "98.089,112.626 134.978,112.626 134.978,112.049 98.089,112.049 "/>
      <polyline fill = "#0000ff" fill-opacity = "1.000" stroke = "none" points = "98.089,113.202 134.978,113.202 134.978,112.626 98.089,112.626 "/>
      <polyline fill = "#0000ff" fill-opacity = "1.000" stroke = "none" points = "98.089,113.778 134.978,113.778 134.978,113.202 98.089,113.202 "/>
      <polyline fill = "#0000ff" fill-opacity = "1.000" stroke = "none" points = "98.089,114.355 134.978,114.355 134.978,113.778 98.089,113.778 "/>
      <polyline fill = "#0000ff" fill-opacity = "1.000" stroke = "none" points = "98.089,114.931 134.978,114.931 134.978,114.355 98.089,114.355 "/>
      <polyline fill = "#0000ff" fill-opacity = "1.000" stroke = "none" points = "98.089,115.507 134.978,115.507 134.978,114.931 98.089,114.931 "/>
      <polyline fill = "#0000ff" fill-opacity = "1.000" stroke = "none" points = "98.089,116.083 134.978,116.083 134.978,115.507 98.089,115.507 "/>
      <polyline fill = "#0000ff" fill-opacity = "1.000" stroke = "none" points = "98.089,116.660 134.978,116.660 134.978,116.083 98.089,116.083 "/>
      <polyline fill = "#0000ff" fill-opacity = "1.000" stroke = "none" points = "98.089,117.236 134.978,117.236 134.978,116.660 98.089,116.660 "/>
      <polyline fill = "#0000ff" fill-opacity = "1.000" stroke = "none" points = "98.089,117.812 134.978,117.812 134.978,117.236 98.089,117.236 "/>
      <polyline fill = "#0000ff" fill-opacity = "1.000" stroke = "none" points = "98.089,118.388 134.978,118.388 134.978,117.812 98.089,117.812 "/>
      <polyline fill = "#0000ff" fill-opacity = "1.000" stroke = "none" points = "98.089,118.965 134.978,118.965 134.978,118.388 98.089,118.388 "/>
      <polyline fill = "#0000ff" fill-opacity = "1.000" stroke = "none" points = "98.089,119.541 134.978,119.541 134.978,118.965 98.089,118.965 "/>
      <polyline fill = "#0000ff" fill-opacity = "1.000" stroke = "none" points = "98.089,120.117 134.978,120.117 134.978,119.541 98.089,119.541 "/>
      <polyline fill = "#0000ff" fill-opacity = "1.000" stroke = "none" points = "98.089,120.693 134.978,120.693 134.978,120.117 98.089,120.117 "/>
      <polyline fill = "#0000ff" fill-opacity = "1.000" stroke = "none" points = "98.089,121.270 134.978,121.270 134.978,120.693 98.089,120.693 "/>
      <polyline fill = "#0000ff" fill-opacity = "1.000" stroke = "none" points = "98.089,121.846 134.978,121.846 134.978,121.270 98.089,121.270 "/>
      <polyline fill = "#0000ff" fill-opacity = "1.000" stroke = "none" points = "98.089,122.422 134.978,122.422 134.978,121.846 98.089,121.846 "/>
      <polyline fill = "#0000ff" fill-opacity = "1.000" stroke = "none" points = "98.089,122.998 134.978,122.998 134.978,122.422 98.089,122.422 "/>
      <polyline fill = "#0000ff" fill-opacity = "1.000" stroke = "none" points = "98.089,123.575 134.978,123.575 134.978,122.998 98.089,122.998 "/>
      <polyline fill = "#0000ff" fill-opacity = "1.000" stroke = "none" points = "98.089,124.151 134.978,124.151 134.978,123.575 98.089,123.575 "/>
      <polyline fill = "#0000ff" fill-opacity = "1.000" stroke = "none" points = "98.089,124.727 134.978,124.727 134.978,124.151 98.089,124.151 "/>
      <polyline fill = "#0000ff" fill-opacity = "1.000" stroke = "none" points = "98.089,125.304 134.978,125.304 134.978,124.727 98.089,124.727 "/>
      <polyline fill = "#0000ff" fill-opacity = "1.000" stroke = "none" points = "98.089,125.880 134.978,125.880 134.978,125.304 98.089,125.304 "/>
      <polyline fill = "#0000ff" fill-opacity = "1.000" stroke = "none" points = "98.089,126.456 134.978,126.456 134.978,125.880 98.089,125.880 "/>
      <polyline fill = "#0000ff" fill-opacity = "1.000" stroke = "none" points = "98.089,127.032 134.978,127.032 134.978,126.456 98.089,126.456 "/>
      <polyline fill = "#0000ff" fill-opacity = "1.000" stroke = "none" points = "98.089,127.609 134.978,127.609 134.978,127.032 98.089,127.032 "/>
      <polyline fill = "#0000ff" fill-opacity = "1.000" stroke = "none" points = "98.089,128.185 134.978,128.185 134.978,127.609 98.089,127.609 "/>
      <polyline fill = "#0000ff" fill-opacity = "1.000" stroke = "none" points = "98.089,128.761 134.978,128.761 134.978,128.185 98.089,128.185 "/>
      <polyline fill = "#0000ff" fill-opacity = "1.000" stroke = "none" points = "98.089,129.337 134.978,129.337 134.978,128.761 98.089,128.761 "/>
      <polyline fill = "#0000ff" fill-opacity = "1.000" stroke = "none" points = "98.089,129.914 134.978,129.914 134.978,129.337 98.089,129.337 "/>
      <polyline fill = "#0000ff" fill-opacity = "1.000" stroke = "none" points = "98.089,130.490 134.978,130.490 134.978,129.914 98.089,129.914 "/>
      <polyline fill = "#0000ff" fill-opacity = "1.000" stroke = "none" points = "98.089,131.066 134.978,131.066 134.978,130.490 98.089,130.490 "/>
      <polyline fill = "#0000ff" fill-opacity = "1.000" stroke = "none" points = "98.089,131.642 134.978,131.642 134.978,131.066 98.089,131.066 "/>
      <polyline fill = "#0000ff" fill-opacity = "1.000" stroke = "none" points = "98.089,132.219 134.978,132.219 134.978,131.642 98.089,131.642 "/>
      <polyline fill = "#0000ff" fill-opacity = "1.000" stroke = "none" points = "98.089,132.795 134.978,132.795 134.978,132.219 98.089,132.219 "/>
      <polyline fill = "#0000ff" fill-opacity = "1.000" stroke = "none" points = "98.089,133.371 134.978,133.371 134.978,132.795 98.089,132.795 "/>
      <polyline fill = "#0000ff" fill-opacity = "1.000" stroke = "none" points = "98.089,133.947 134.978,133.947 134.978,133.371 98.089,133.371 "/>
      <polyline fill = "#0000ff" fill-opacity = "1.000" stroke = "none" points = "98.089,134.524 134.978,134.524 134.978,133.947 98.089,133.947 "/>
      <polyline fill = "#0000ff" fill-opacity = "1.000" stroke = "none" points = "98.089,135.100 134.978,135.100 134.978,134.524 98.089,134.524 "/>
      <polyline fill = "#0000ff" fill-opacity = "1.000" stroke = "none" points = "98.089,135.676 134.978,135.676 134.978,135.100 98.089,135.100 "/>
      <polyline fill = "#0000ff" fill-opacity = "1.000" stroke = "none" points = "98.089,136.253 134.978,136.253 134.978,135.676 98.089,135.676 "/>
      <polyline fill = "#0000ff" fill-opacity = "1.000" stroke = "none" points = "98.089,136.829 134.978,136.829 134.978,136.253 98.089,136.253 "/>
      <polyline fill = "#0000ff" fill-opacity = "1.000" stroke = "none" points = "98.089,137.405 134.978,137.405 134.978,136.829 98.089,136.829 "/>
      <polyline fill = "#0000ff" fill-opacity = "1.000" stroke = "none" points = "98.089,137.981 134.978,137.981 134.978,137.405 98.089,137.405 "/>
      <polyline fill = "#0000ff" fill-opacity = "1.000" stroke = "none" points = "98.089,138.558 134.978,138.558 134.978,137.981 98.089,137.981 "/>
      <polyline fill = "#0000ff" fill-opacity = "1.000" stroke = "none" points = "98.089,139.134 134.978,139.134 134.978,138.558 98.089,138.558 "/>
      <polyline fill = "#0000ff" fill-opacity = "1.000" stroke = "none" points = "98.089,139.710 134.978,139.710 134.978,139.134 98.089,139.134 "/>
      <polyline fill = "#0000ff" fill-opacity = "1.000" stroke = "none" points = "98.089,140.286 134.978,140.286 134.978,139.710 98.089,139.710 "/>
      <polyline fill = "#0000ff" fill-opacity = "1.000" stroke = "none" points = "98.089,140.863 134.978,140.863 134.978,140.286 98.089,140.286 "/>
      <polyline fill = "#0000ff" fill-opacity = "1.000" stroke = "none" points = "98.089,141.439 134.978,141.439 134.978,140.863 98.089,140.863 "/>
      <polyline fill = "#0000ff" fill-opacity = "1.000" stroke = "none" points = "98.089,142.015 134.978,142.015 134.978,141.439 98.089,141.439 "/>
      <polyline fill = "#0000ff" fill-opacity = "1.000" stroke = "none" points = "98.089,142.591 134.978,142.591 134.978,142.015 98.089,142.015 "/>
      <polyline fill = "#0000ff" fill-opacity = "1.000" stroke = "none" points = "98.089,143.168 134.978,143.168 134.978,142.591 98.089,142.591 "/>
      <polyline fill = "#0000ff" fill-opacity = "1.000" stroke = "none" points = "98.089,143.744 134.978,143.744 134.978,143.168 98.089,143.168 "/>
      <polyline fill = "#0000ff" fill-opacity = "1.000" stroke = "none" points = "98.089,144.320 134.978,144.320 134.978,143.744 98.089,143.744 "/>
      <polyline fill = "#0000ff" fill-opacity = "1.000" stroke = "none" points = "98.089,144.896 134.978,144.896 134.978,144.320 98.089,144.320 "/>
      <polyline fill = "#0000ff" fill-opacity = "1.000" stroke = "none" points = "98.089,145.473 134.978,145.473 134.978,144.896 98.089,144.896 "/>
      <polyline fill = "#0000ff" fill-opacity = "1.000" stroke = "none" points = "98.089,146.049 134.978,146.049 134.978,145.473 98.089,145.473 "/>
      <polyline fill = "#0000ff" fill-opacity = "1.000" stroke = "none" points = "98.089,146.625 134.978,146.625 134.978,146.049 98.089,146.049 "/>
      <polyline fill = "#0000ff" fill-opacity = "1.000" stroke = "none" points = "98.089,147.202 134.978,147.202 134.978,146.625 98.089,146.625 "/>
      <polyline fill = "#0000ff" fill-opacity = "1.000" stroke = "none" points = "98.089,147.778 134.978,147.778 134.978,147.202 98.089,147.202 "/>
      <polyline fill = "#0000ff" fill-opacity = "1.000" stroke = "none" points = "98.089,148.354 134.978,148.354 134.978,147.778 98.089,147.778 "/>
      <polyline fill = "#0000ff" fill-opacity = "1.000" stroke = "none" points = "98.089,148.930 134.978,148.930 134.978,148.354 98.089,148.354 "/>
      <polyline fill = "#0000ff" fill-opacity = "1.000" stroke = "none" points = "98.089,149.507 134.978,149.507 134.978,148.930 98.089,148.930 "/>
      <polyline fill = "#0000ff" fill-opacity = "1.000" stroke = "none" points = "98.089,150.083 134.978,150.083 134.978,149.507 98.089,149.507 "/>
      <polyline fill = "#0000ff" fill-opacity = "1.000" stroke = "none" points = "98.089,150.659 134.978,150.659 134.978,150.083 98.089,150.083 "/>
      <polyline fill = "#0000ff" fill-opacity = "1.000" stroke = "none" points = "98.089,151.235 134.978,151.235 134.978,150.659 98.089,150.659 "/>
      <polyline fill = "#0000ff" fill-opacity = "1.000" stroke = "none" points = "98.089,151.812 134.978,151.812 134.978,151.235 98.089,151.235 "/>
      <polyline fill = "#0000ff" fill-opacity = "1.000" stroke = "none" points = "98.089,152.388 134.978,152.388 134.978,151.812 98.089,151.812 "/>
      <polyline fill = "#0000ff" fill-opacity = "1.000" stroke = "none" points = "98.089,152.964 134.978,152.964 134.978,152.388 98.089,152.388 "/>
      <polyline fill = "#0000ff" fill-opacity = "1.000" stroke = "none" points = "98.089,153.540 134.978,153.540 134.978,152.964 98.089,152.964 "/>
      <polyline fill = "#0000ff" fill-opacity = "1.000" stroke = "none" points = "98.089,154.117 134.978,154.117 134.978,153.540 98.089,153.540 "/>
      <polyline fill = "#0000ff" fill-opacity = "1.000" stroke = "none" points = "98.089,154.693 134.978,154.693 134.978,154.117 98.089,154.117 "/>
      <polyline fill = "#0000ff" fill-opacity = "1.000" stroke = "none" points = "98.089,155.269 134.978,155.269 134.978,154.693 98.089,154.693 "/>
      <polyline fill = "#0000ff" fill-opacity = "1.000" stroke = "none" points = "98.089,155.845 134.978,155.845 134.978,155.269 98.089,155.269 "/>
      <polyline fill = "#0000ff" fill-opacity = "1.000" stroke = "none" points = "98.089,156.422 134.978,156.422 134.978,155.845 98.089,155.845 "/>
      <polyline fill = "#0000ff" fill-opacity = "1.000" stroke = "none" points = "98.089,156.998 134.978,156.998 134.978,156.422 98.089,156.422 "/>
      <polyline fill = "#0000ff" fill-opacity = "1.000" stroke = "none" points = "98.089,157.574 134.978,157.574 134.978,156.998 98.089,156.998 "/>
      <polyline fill = "#0000ff" fill-opacity = "1.000" stroke = "none" points = "98.089,158.151 134.978,158.151 134.978,157.574 98.089,157.574 "/>
      <polyline fill = "#0000ff" fill-opacity = "1.000" stroke = "none" points = "98.089,158.727 134.978,158.727 134.978,158.151 98.089,158.151 "/>
      <polyline fill = "#0000ff" fill-opacity = "1.000" stroke = "none" points = "98.089,159.303 134.978,159.303 134.978,158.727 98.089,158.727 "/>
      <polyline fill = "#0000ff" fill-opacity = "1.000" stroke = "none" points = "98.089,159.879 134.978,159.879 134.978,159.303 98.089,159.303 "/>
      <polyline fill = "#0000ff" fill-opacity = "1.000" stroke = "none" points = "98.089,160.456 134.978,160.456 134.978,159.879 98.089,159.879 "/>
      <polyline fill = "#0000ff" fill-opacity = "1.000" stroke = "none" points = "98.089,161.032 134.978,161.032 134.978,160.456 98.089,160.456 "/>
      <polyline fill = "#0000ff" fill-opacity = "1.000" stroke = "none" points = "98.089,161.608 134.978,161.608 134.978,161.032 98.089,161.032 "/>
      <polyline fill = "#0000ff" fill-opacity = "1.000" stroke = "none" points = "98.089,162.184 134.978,162.184 134.978,161.608 98.089,161.608 "/>
      <polyline fill = "#0000ff" fill-opacity = "1.000" stroke = "none" points = "98.089,162.761 134.978,162.761 134.978,162.184 98.089,162.184 "/>
      <polyline fill = "#0000ff" fill-opacity = "1.000" stroke = "none" points = "98.089,163.337 134.978,163.337 134.978,162.761 98.089,162.761 "/>
      <polyline fill = "#0000ff" fill-opacity = "1.000" stroke = "none" points = "98.089,163.913 134.978,163.913 134.978,163.337 98.089,163.337 "/>
      <polyline fill = "#0000ff" fill-opacity = "1.000" stroke = "none" points = "98.089,164.489 134.978,164.489 134.978,163.913 98.089,163.913 "/>
      <polyline fill = "#0000ff" fill-opacity = "1.000" stroke = "none" points = "98.089,165.066 134.978,165.066 134.978,164.489 98.089,164.489 "/>
      <polyline fill = "#0000ff" fill-opacity = "1.000" stroke = "none" points = "98.089,165.642 134.978,165.642 134.978,165.066 98.089,165.066 "/>
      <polyline fill = "#0000ff" fill-opacity = "1.000" stroke = "none" points = "98.089,166.218 134.978,166.218 134.978,165.642 98.089,165.642 "/>
      <polyline fill = "#0000ff" fill-opacity = "1.000" stroke = "none" points = "98.089,166.794 134.978,166.794 134.978,166.218 98.089,166.218 "/>
      <polyline fill = "#0000ff" fill-opacity = "1.000" stroke = "none" points = "98.089,167.371 134.978,167.371 134.978,166.794 98.089,166.794 "/>
      <polyline fill = "#0000ff" fill-opacity = "1.000" stroke = "none" points = "98.089,167.947 134.978,167.947 134.978,167.371 98.089,167.371 "/>
      <polyline fill = "#0000ff" fill-opacity = "1.000" stroke = "none" points = "98.089,168.523 134.978,168.523 134.978,167.947 98.089,167.947 "/>
      <polyline fill = "#0000ff" fill-opacity = "1.000" stroke = "none" points = "98.089,169.099 134.978,169.099 134.978,168.523 98.089,168.523 "/>
      <polyline fill = "#0000ff" fill-opacity = "1.000" stroke = "none" points = "98.089,169.676 134.978,169.676 134.978,169.099 98.089,169.099 "/>
      <polyline fill = "#0000ff" fill-opacity = "1.000" stroke = "none" points = "98.089,170.252 134.978,170.252 134.978,169.676 98.089,169.676 "/>
      <polyline fill = "#0000ff" fill-opacity = "1.000" stroke = "none" points = "98.089,170.828 134.978,170.828 134.978,170.252 98.089,170.252 "/>
      <polyline fill = "#0000ff" fill-opacity = "1.000" stroke = "none" points = "98.089,171.405 134.978,171.405 134.978,170.828 98.089,170.828 "/>
      <polyline fill = "#0000ff" fill-opacity = "1.000" stroke = "none" points = "98.089,171.981 134.978,171.981 134.978,171.405 98.089,171.405 "/>
      <polyline fill = "#0000ff" fill-opacity = "1.000" stroke = "none" points = "98.089,172.557 134.978,172.557 134.978,171.981 98.089,171.981 "/>
      <polyline fill = "#0000ff" fill-opacity = "1.000" stroke = "none" points = "98.089,173.133 134.978,173.133 134.978,172.557 98.089,172.557 "/>
      <polyline fill = "#0000ff" fill-opacity = "1.000" stroke = "none" points = "98.089,173.710 134.978,173.710 134.978,173.133 98.089,173.133 "/>
      <polyline fill = "#0000ff" fill-opacity = "1.000" stroke = "none" points = "98.089,174.286 134.978,174.286 134.978,173.710 98.089,173.710 "/>
      <polyline fill = "#0000ff" fill-opacity = "1.000" stroke = "none" points = "98.089,174.862 134.978,174.862 134.978,174.286 98.089,174.286 "/>
      <polyline fill = "#0000ff" fill-opacity = "1.000" stroke = "none" points = "98.089,175.438 134.978,175.438 134.978,174.862 98.089,174.862 "/>
      <polyline fill = "#0000ff" fill-opacity = "1.000" stroke = "none" points = "98.089,176.015 134.978,176.015 134.978,175.438 98.089,175.438 "/>
      <polyline fill = "#0000ff" fill-opacity = "1.000" stroke = "none" points = "98.089,176.591 134.978,176.591 134.978,176.015 98.089,176.015 "/>
      <polyline fill = "#0000ff" fill-opacity = "1.000" stroke = "none" points = "98.089,177.167 134.978,177.167 134.978,176.591 98.089,176.591 "/>
      <polyline fill = "#0000ff" fill-opacity = "1.000" stroke = "none" points = "98.089,177.743 134.978,177.743 134.978,177.167 98.089,177.167 "/>
      <polyline fill = "#0000ff" fill-opacity = "1.000" stroke = "none" points = "98.089,178.320 134.978,178.320 134.978,177.743 98.089,177.743 "/>
      <polyline fill = "#0000ff" fill-opacity = "1.000" stroke = "none" points = "98.089,178.896 134.978,178.896 134.978,178.320 98.089,178.320 "/>
      <polyline fill = "#0000ff" fill-opacity = "1.000" stroke = "none" points = "98.089,179.472 134.978,179.472 134.978,178.896 98.089,178.896 "/>
      <polyline fill = "#0000ff" fill-opacity = "1.000" stroke = "none" points = "98.089,180.048 134.978,180.048 134.978,179.472 98.089,179.472 "/>
      <polyline fill = "#0000ff" fill-opacity = "1.000" stroke = "none" points = "98.089,180.625 134.978,180.625 134.978,180.048 98.089,180.048 "/>
      <polyline fill = "#0000ff" fill-opacity = "1.000" stroke = "none" points = "98.089,181.201 134.978,181.201 134.978,180.625 98.089,180.625 "/>
      <polyline fill = "#0000ff" fill-opacity = "1.000" stroke = "none" points = "98.089,181.777 134.978,181.777 134.978,181.201 98.089,181.201 "/>
      <polyline fill = "#0000ff" fill-opacity = "1.000" stroke = "none" points = "98.089,182.354 134.978,182.354 134.978,181.777 98.089,181.777 "/>
      <polyline fill = "#0000ff" fill-opacity = "1.000" stroke = "none" points = "98.089,182.930 134.978,182.930 134.978,182.354 98.089,182.354 "/>
      <polyline fill = "#0000ff" fill-opacity = "1.000" stroke = "none" points = "98.089,183.506 134.978,183.506 134.978,182.930 98.089,182.930 "/>
      <polyline fill = "#0000ff" fill-opacity = "1.000" stroke = "none" points = "98.089,184.082 134.978,184.082 134.978,183.506 98.089,183.506 "/>
      <polyline fill = "#0000ff" fill-opacity = "1.000" stroke = "none" points = "98.089,184.659 134.978,184.659 134.978,184.082 98.089,184.082 "/>
      <polyline fill = "#0000ff" fill-opacity = "1.000" stroke = "none" points = "98.089,185.235 134.978,185.235 134.978,184.659 98.089,184.659 "/>
      <polyline fill = "#0000ff" fill-opacity = "1.000" stroke = "none" points = "98.089,185.811 134.978,185.811 134.978,185.235 98.089,185.235 "/>
      <polyline fill = "#0000ff" fill-opacity = "1.000" stroke = "none" points = "98.089,186.387 134.978,186.387 134.978,185.811 98.089,185.811 "/>
      <polyline fill = "#0000ff" fill-opacity = "1.000" stroke = "none" points = "98.089,186.964 134.978,186.964 134.978,186.387 98.089,186.387 "/>
      <polyline fill = "#0000ff" fill-opacity = "1.000" stroke = "none" points = "98.089,187.540 134.978,187.540 134.978,186.964 98.089,186.964 "/>
      <polyline fill = "#0000ff" fill-opacity = "1.000" stroke = "none" points = "98.089,188.116 134.978,188.116 134.978,187.540 98.089,187.540 "/>
      <polyline fill = "#0000ff" fill-opacity = "1.000" stroke = "none" points = "98.089,188.692 134.978,188.692 134.978,188.116 98.089,188.116 "/>
      <polyline fill = "#0000ff" fill-opacity = "1.000" stroke = "none" points = "98.089,189.269 134.978,189.269 134.978,188.692 98.089,188.692 "/>
      <polyline fill = "#0000ff" fill-opacity = "1.000" stroke = "none" points = "98.089,189.845 134.978,189.845 134.978,189.269 98.089,189.269 "/>
      <polyline fill = "#0000ff" fill-opacity = "1.000" stroke = "none" points = "98.089,190.421 134.978,190.421 134.978,189.845 98.089,189.845 "/>
      <polyline fill = "#0000ff" fill-opacity = "1.000" stroke = "none" points = "98.089,190.997 134.978,190.997 134.978,190.421 98.089,190.421 "/>
      <polyline fill = "#0000ff" fill-opacity = "1.000" stroke = "none" points = "98.089,191.574 134.978,191.574 134.978,190.997 98.089,190.997 "/>
      <polyline fill = "#0000ff" fill-opacity = "1.000" stroke = "none" points = "98.089,192.150 134.978,192.150 134.978,191.574 98.089,191.574 "/>
      <polyline fill = "#0000ff" fill-opacity = "1.000" stroke = "none" points = "98.089,192.726 134.978,192.726 134.978,192.150 98.089,192.150 "/>
      <polyline fill = "#0000ff" fill-opacity = "1.000" stroke = "none" points = "98.089,193.303 134.978,193.303 134.978,192.726 98.089,192.726 "/>
      <polyline fill = "#0000ff" fill-opacity = "1.000" stroke = "none" points = "98.089,193.879 134.978,193.879 134.978,193.303 98.089,193.303 "/>
      <polyline fill = "#0000ff" fill-opacity = "1.000" stroke = "none" points = "98.089,194.455 134.978,194.455 134.978,193.879 98.089,193.879 "/>
      <polyline fill = "#0000ff" fill-opacity = "1.000" stroke = "none" points = "98.089,195.031 134.978,195.031 134.978,194.455 98.089,194.455 "/>
      <polyline fill = "#0000ff" fill-opacity = "1.000" stroke = "none" points = "98.089,195.608 134.978,195.608 134.978,195.031 98.089,195.031 "/>
      <polyline fill = "#0000ff" fill-opacity = "1.000" stroke = "none" points = "98.089,196.184 134.978,196.184 134.978,195.608 98.089,195.608 "/>
      <polyline fill = "#0000ff" fill-opacity = "1.000" stroke = "none" points = "98.089,196.760 134.978,196.760 134.978,196.184 98.089,196.184 "/>
      <polyline fill = "#0000ff" fill-opacity = "1.000" stroke = "none" points = "98.089,197.336 134.978,197.336 134.978,196.760 98.089,196.760 "/>
      <polyline fill = "#0000ff" fill-opacity = "1.000" stroke = "none" points = "98.089,197.913 134.978,197.913 134.978,197.336 98.089,197.336 "/>
      <polyline fill = "#0000ff" fill-opacity = "1.000" stroke = "none" points = "98.089,198.489 134.978,198.489 134.978,197.913 98.089,197.913 "/>
      <polyline fill = "#0000ff" fill-opacity = "1.000" stroke = "none" points = "98.089,199.065 134.978,199.065 134.978,198.489 98.089,198.489 "/>
      <polyline fill = "#0000ff" fill-opacity = "1.000" stroke = "none" points = "98.089,199.641 134.978,199.641 134.978,199.065 98.089,199.065 "/>
      <polyline fill = "#0000ff" fill-opacity = "1.000" stroke = "none" points = "98.089,200.218 134.978,200.218 134.978,199.641 98.089,199.641 "/>
      <polyline fill = "#0000ff" fill-opacity = "1.000" stroke = "none" points = "98.089,200.794 134.978,200.794 134.978,200.218 98.089,200.218 "/>
      <polyline fill = "#0000ff" fill-opacity = "1.000" stroke = "none" points = "98.089,201.370 134.978,201.370 134.978,200.794 98.089,200.794 "/>
      <polyline fill = "#0000ff" fill-opacity = "1.000" stroke = "none" points = "98.089,201.946 134.978,201.946 134.978,201.370 98.089,201.370 "/>
      <polyline fill = "#0000ff" fill-opacity = "1.000" stroke = "none" points = "98.089,202.523 134.978,202.523 134.978,201.946 98.089,201.946 "/>
      <polyline fill = "#0000ff" fill-opacity = "1.000" stroke = "none" points = "98.089,203.099 134.978,203.099 134.978,202.523 98.089,202.523 "/>
      <polyline fill = "#0000ff" fill-opacity = "1.000" stroke = "none" points = "98.089,203.675 134.978,203.675 134.978,203.099 98.089,203.099 "/>
      <polyline fill = "#0000ff" fill-opacity = "1.000" stroke = "none" points = "98.089,204.252 134.978,204.252 134.978,203.675 98.089,203.675 "/>
      <polyline fill = "#0000ff" fill-opacity = "1.000" stroke = "none" points = "98.089,204.828 134.978,204.828 134.978,204.252 98.089,204.252 "/>
      <polyline fill = "#0000ff" fill-opacity = "1.000" stroke = "none" points = "98.089,205.404 134.978,205.404 134.978,204.828 98.089,204.828 "/>
      <polyline fill = "#0000ff" fill-opacity = "1.000" stroke = "none" points = "98.089,205.980 134.978,205.980 134.978,205.404 98.089,205.404 "/>
      <polyline fill = "#0000ff" fill-opacity = "1.000" stroke = "none" points = "98.089,206.557 134.978,206.557 134.978,205.980 98.089,205.980 "/>
      <polyline fill = "#0000ff" fill-opacity = "1.000" stroke = "none" points = "98.089,207.133 134.978,207.133 134.978,206.557 98.089,206.557 "/>
      <polyline fill = "#0000ff" fill-opacity = "1.000" stroke = "none" points = "98.089,207.709 134.978,207.709 134.978,207.133 98.089,207.133 "/>
      <polyline fill = "#0000ff" fill-opacity = "1.000" stroke = "none" points = "98.089,208.285 134.978,208.285 134.978,207.709 98.089,207.709 "/>
      <polyline fill = "#0000ff" fill-opacity = "1.000" stroke = "none" points = "98.089,208.862 134.978,208.862 134.978,208.285 98.089,208.285 "/>
      <polyline fill = "#0000ff" fill-opacity = "1.000" stroke = "none" points = "98.089,209.438 134.978,209.438 134.978,208.862 98.089,208.862 "/>
      <polyline fill = "#0000ff" fill-opacity = "1.000" stroke = "none" points = "98.089,210.014 134.978,210.014 134.978,209.438 98.089,209.438 "/>
      <polyline fill = "#0000ff" fill-opacity = "1.000" stroke = "none" points = "98.089,210.590 134.978,210.590 134.978,210.014 98.089,210.014 "/>
      <polyline fill = "#0000ff" fill-opacity = "1.000" stroke = "none" points = "98.089,211.167 134.978,211.167 134.978,210.590 98.089,210.590 "/>
      <polyline fill = "#0000ff" fill-opacity = "1.000" stroke = "none" points = "98.089,211.743 134.978,211.743 134.978,211.167 98.089,211.167 "/>
      <polyline fill = "#0000ff" fill-opacity = "1.000" stroke = "none" points = "98.089,212.319 134.978,212.319 134.978,211.743 98.089,211.743 "/>
      <polyline fill = "#0000ff" fill-opacity = "1.000" stroke = "none" points = "98.089,212.895 134.978,212.895 134.978,212.319 98.089,212.319 "/>
      <polyline fill = "#0000ff" fill-opacity = "1.000" stroke = "none" points = "98.089,213.472 134.978,213.472 134.978,212.895 98.089,212.895 "/>
      <polyline fill = "#0000ff" fill-opacity = "1.000" stroke = "none" points = "98.089,214.048 134.978,214.048 134.978,213.472 98.089,213.472 "/>
      <polyline fill = "#0000ff" fill-opacity = "1.000" stroke = "none" points = "98.089,214.624 134.978,214.624 134.978,214.048 98.089,214.048 "/>
      <polyline fill = "#0000ff" fill-opacity = "1.000" stroke = "none" points = "98.089,215.201 134.978,215.201 134.978,214.624 98.089,214.624 "/>
      <polyline fill = "#0000ff" fill-opacity = "1.000" stroke = "none" points = "98.089,215.777 134.978,215.777 134.978,215.201 98.089,215.201 "/>
      <polyline fill = "#0000ff" fill-opacity = "1.000" stroke = "none" points = "98.089,216.353 134.978,216.353 134.978,215.777 98.089,215.777 "/>
      <polyline fill = "#0000ff" fill-opacity = "1.000" stroke = "none" points = "98.089,216.929 134.978,216.929 134.978,216.353 98.089,216.353 "/>
      <polyline fill = "#0000ff" fill-opacity = "1.000" stroke = "none" points = "98.089,217.506 134.978,217.506 134.978,216.929 98.089,216.929 "/>
      <polyline fill = "#0000ff" fill-opacity = "1.000" stroke = "none" points = "98.089,218.082 134.978,218.082 134.978,217.506 98.089,217.506 "/>
      <polyline fill = "#0000ff" fill-opacity = "1.000" stroke = "none" points = "98.089,218.658 134.978,218.658 134.978,218.082 98.089,218.082 "/>
      <polyline fill = "#0000ff" fill-opacity = "1.000" stroke = "none" points = "98.089,219.234 134.978,219.234 134.978,218.658 98.089,218.658 "/>
      <polyline fill = "#0000ff" fill-opacity = "1.000" stroke = "none" points = "98.089,219.811 134.978,219.811 134.978,219.234 98.089,219.234 "/>
      <polyline fill = "#0000ff" fill-opacity = "1.000" stroke = "none" points = "98.089,220.387 134.978,220.387 134.978,219.811 98.089,219.811 "/>
      <polyline fill = "#0000ff" fill-opacity = "1.000" stroke = "none" points = "98.089,220.963 134.978,220.963 134.978,220.387 98.089,220.387 "/>
      <polyline fill = "#0000ff" fill-opacity = "1.000" stroke = "none" points = "98.089,221.539 134.978,221.539 134.978,220.963 98.089,220.963 "/>
      <polyline fill = "#0000ff" fill-opacity = "1.000" stroke = "none" points = "98.089,222.116 134.978,222.116 134.978,221.539 98.089,221.539 "/>
      <polyline fill = "#0000ff" fill-opacity = "1.000" stroke = "none" points = "98.089,222.692 134.978,222.692 134.978,222.116 98.089,222.116 "/>
      <polyline fill = "#0000ff" fill-opacity = "1.000" stroke = "none" points = "98.089,223.268 134.978,223.268 134.978,222.692 98.089,222.692 "/>
      <polyline fill = "#0000ff" fill-opacity = "1.000" stroke = "none" points = "98.089,223.844 134.978,223.844 134.978,223.268 98.089,223.268 "/>
      <polyline fill = "#0000ff" fill-opacity = "1.000" stroke = "none" points = "98.089,224.421 134.978,224.421 134.978,223.844 98.089,223.844 "/>
      <polyline fill = "#0000ff" fill-opacity = "1.000" stroke = "none" points = "98.089,224.997 134.978,224.997 134.978,224.421 98.089,224.421 "/>
      <polyline fill = "#0000ff" fill-opacity = "1.000" stroke = "none" points = "98.089,225.573 134.978,225.573 134.978,224.997 98.089,224.997 "/>
      <polyline fill = "#0000ff" fill-opacity = "1.000" stroke = "none" points = "98.089,226.149 134.978,226.149 134.978,225.573 98.089,225.573 "/>
      <polyline fill = "#0000ff" fill-opacity = "1.000" stroke = "none" points = "98.089,226.726 134.978,226.726 134.978,226.149 98.089,226.149 "/>
      <polyline fill = "#0000ff" fill-opacity = "1.000" stroke = "none" points = "98.089,227.302 134.978,227.302 134.978,226.726 98.089,226.726 "/>
      <polyline fill = "#0000ff" fill-opacity = "1.000" stroke = "none" points = "98.089,227.878 134.978,227.878 134.978,227.302 98.089,227.302 "/>
      <polyline fill = "#0000ff" fill-opacity = "1.000" stroke = "none" points = "98.089,228.455 134.978,228.455 134.978,227.878 98.089,227.878 "/>
      <polyline fill = "#0000ff" fill-opacity = "1.000" stroke = "none" points = "98.089,229.031 134.978,229.031 134.978,228.455 98.089,228.455 "/>
      <polyline fill = "#0000ff" fill-opacity = "1.000" stroke = "none" points = "98.089,229.607 134.978,229.607 134.978,229.031 98.089,229.031 "/>
      <polyline fill = "#0000ff" fill-opacity = "1.000" stroke = "none" points = "98.089,230.183 134.978,230.183 134.978,229.607 98.089,229.607 "/>
      <polyline fill = "#0000ff" fill-opacity = "1.000" stroke = "none" points = "98.089,230.760 134.978,230.760 134.978,230.183 98.089,230.183 "/>
      <polyline fill = "#0000ff" fill-opacity = "1.000" stroke = "none" points = "98.089,231.336 134.978,231.336 134.978,230.760 98.089,230.760 "/>
      <polyline fill = "#0000ff" fill-opacity = "1.000" stroke = "none" points = "98.089,231.912 134.978,231.912 134.978,231.336 98.089,231.336 "/>
      <polyline fill = "#0000ff" fill-opacity = "1.000" stroke = "none" points = "98.089,232.488 134.978,232.488 134.978,231.912 98.089,231.912 "/>
      <polyline fill = "#0000ff" fill-opacity = "1.000" stroke = "none" points = "98.089,233.065 134.978,233.065 134.978,232.488 98.089,232.488 "/>
      <polyline fill = "#0000ff" fill-opacity = "1.000" stroke = "none" points = "98.089,233.641 134.978,233.641 134.978,233.065 98.089,233.065 "/>
      <polyline fill = "#0000ff" fill-opacity = "1.000" stroke = "none" points = "98.089,234.217 134.978,234.217 134.978,233.641 98.089,233.641 "/>
      <polyline fill = "#0000ff" fill-opacity = "1.000" stroke = "none" points = "98.089,234.793 134.978,234.793 134.978,234.217 98.089,234.217 "/>
      <polyline fill = "#0000ff" fill-opacity = "1.000" stroke = "none" points = "98.089,235.370 134.978,235.370 134.978,234.793 98.089,234.793 "/>
      <polyline fill = "#0000ff" fill-opacity = "1.000" stroke = "none" points = "98.089,235.946 134.978,235.946 134.978,235.370 98.089,235.370 "/>
      <polyline fill = "#0000ff" fill-opacity = "1.000" stroke = "none" points = "98.089,236.522 134.978,236.522 134.978,235.946 98.089,235.946 "/>
      <polyline fill = "#0000ff" fill-opacity = "1.000" stroke = "none" points = "98.089,237.098 134.978,237.098 134.978,236.522 98.089,236.522 "/>
      <polyline fill = "#0000ff" fill-opacity = "1.000" stroke = "none" points = "98.089,237.675 134.978,237.675 134.978,237.098 98.089,237.098 "/>
      <polyline fill = "#0000ff" fill-opacity = "1.000" stroke = "none" points = "98.089,238.251 134.978,238.251 134.978,237.675 98.089,237.675 "/>
      <polyline fill = "#0000ff" fill-opacity = "1.000" stroke = "none" points = "98.089,238.827 134.978,238.827 134.978,238.251 98.089,238.251 "/>
      <polyline fill = "#0000ff" fill-opacity = "1.000" stroke = "none" points = "98.089,239.404 134.978,239.404 134.978,238.827 98.089,238.827 "/>
      <polyline fill = "#0000ff" fill-opacity = "1.000" stroke = "none" points = "98.089,239.980 134.978,239.980 134.978,239.404 98.089,239.404 "/>
      <polyline fill = "#0000ff" fill-opacity = "1.000" stroke = "none" points = "98.089,240.556 134.978,240.556 134.978,239.980 98.089,239.980 "/>
      <polyline fill = "#0000ff" fill-opacity = "1.000" stroke = "none" points = "98.089,241.132 134.978,241.132 134.978,240.556 98.089,240.556 "/>
      <polyline fill = "#0000ff" fill-opacity = "1.000" stroke = "none" points = "98.089,241.709 134.978,241.709 134.978,241.132 98.089,241.132 "/>
      <polyline fill = "#0000ff" fill-opacity = "1.000" stroke = "none" points = "98.089,242.285 134.978,242.285 134.978,241.709 98.089,241.709 "/>
      <polyline fill = "#0000ff" fill-opacity = "1.000" stroke = "none" points = "98.089,242.861 134.978,242.861 134.978,242.285 98.089,242.285 "/>
      <polyline fill = "#0000ff" fill-opacity = "1.000" stroke = "none" points = "98.089,243.437 134.978,243.437 134.978,242.861 98.089,242.861 "/>
      <polyline fill = "#0000ff" fill-opacity = "1.000" stroke = "none" points = "98.089,244.014 134.978,244.014 134.978,243.437 98.089,243.437 "/>
      <polyline fill = "#0000ff" fill-opacity = "1.000" stroke = "none" points = "98.089,244.590 134.978,244.590 134.978,244.014 98.089,244.014 "/>
      <polyline fill = "#0000ff" fill-opacity = "1.000" stroke = "none" points = "98.089,245.166 134.978,245.166 134.978,244.590 98.089,244.590 "/>
      <polyline fill = "#0000ff" fill-opacity = "1.000" stroke = "none" points = "98.089,245.742 134.978,245.742 134.978,245.166 98.089,245.166 "/>
      <polyline fill = "#0000ff" fill-opacity = "1.000" stroke = "none" points = "98.089,246.319 134.978,246.319 134.978,245.742 98.089,245.742 "/>
      <polyline fill = "#0000ff" fill-opacity = "1.000" stroke = "none" points = "98.089,246.895 134.978,246.895 134.978,246.319 98.089,246.319 "/>
      <polyline fill = "#0000ff" fill-opacity = "1.000" stroke = "none" points = "98.089,247.471 134.978,247.471 134.978,246.895 98.089,246.895 "/>
      <polyline fill = "#0000ff" fill-opacity = "1.000" stroke = "none" points = "98.089,248.047 134.978,248.047 134.978,247.471 98.089,247.471 "/>
      <polyline fill = "#0000ff" fill-opacity = "1.000" stroke = "none" points = "98.089,248.624 134.978,248.624 134.978,248.047 98.089,248.047 "/>
      <polyline fill = "#0000ff" fill-opacity = "1.000" stroke = "none" points = "98.089,249.200 134.978,249.200 134.978,248.624 98.089,248.624 "/>
</g>
  <clipPath id = "ID000001">
    <rect x = "61.200" y = "21.000" width = "276.667" height = "228.200"/>
  </clipPath>
    </g>
  </g>
  </g>
</svg>
